<svg xmlns="http://www.w3.org/2000/svg" style="display: none;"><symbol id="musical-note" viewBox="0 0 511.999 511.999"><title>musical-note</title><path d="m181 66.667v288.313c-15.935-14.281-36.969-22.98-60-22.98-49.626 0-90 40.374-90 90s40.374 90 90 90 90-40.374 90-90v-211.268l240-53.333v137.581c-15.935-14.281-36.969-22.98-60-22.98-49.626 0-90 40.374-90 90s40.374 90 90 90 90-40.374 90-90v-362zm-60 415.332c-33.084 0-60-26.916-60-60s26.916-60 60-60 60 26.916 60 60-26.916 60-60 60zm90-301.999v-89.268l240-53.333v89.268zm180 241.999c-33.084 0-60-26.916-60-60s26.916-60 60-60 60 26.916 60 60-26.916 60-60 60z"/></symbol><symbol id="drum" viewBox="0 0 60 60"><title>drum</title><g id="036---Drum" fill="rgb(0,0,0)" fill-rule="nonzero" transform="translate(-1 -1)"><path id="Shape" d="m57.94 1c-.7947517.01493996-1.5506709.34646449-2.1.921l-10.327 10.741c-2.9158572-2.0857941-6.248395-3.51616889-9.769-4.193-.6615219-2.06372025-2.5812686-3.4630731-4.7484209-3.4612464s-4.0845372 1.40441388-4.7425791 3.4692464c-4.921067.95274816-9.4412601 3.3651207-12.972 6.923l-7.119-7.4c-.72803067-.82976786-1.85293372-1.19268674-2.9286268-.94484048s-1.9283747 1.06641272-2.2199124 2.13109536c-.2915377 1.06468262.02517273 2.20345892.8245392 2.96474512l7.722 8.034c-1.49494211 2.4891692-2.54179661 5.2212124-3.093 8.072-2.0594338.6610595-3.45706077 2.5754287-3.45934138 4.7383577-.00228061 2.1629291 1.39130621 4.0802413 3.44934138 4.7456423.6390479 3.3152505 1.9466228 6.4656111 3.843 9.259-.9852477 1.9259363-.61614869 4.2674833.9137759 5.796952 1.5299247 1.5294686 3.8715815 1.8978697 5.7972241.912048 2.791758 1.8923325 5.9392134 3.1971094 9.251 3.835.66527 2.0560692 2.5799806 3.4489831 4.741 3.4489831s4.07573-1.3929139 4.741-3.4489831c3.3117866-.6378906 6.459242-1.9426675 9.251-3.835 1.9251802.9811463 4.2632356.6105851 5.7906816-.9177721s1.8966127-3.8666332.9143184-5.7912279c1.8951926-2.7933313 3.2017355-5.9433246 3.84-9.258 2.0552831-.6657554 3.4474386-2.580079 3.4474386-4.7405s-1.3921555-4.0747446-3.4474386-4.7405c-.8310702-4.2707527-2.7666806-8.2492008-5.614-11.539l10.236-10.642c.8419995-.8746352 1.0738397-2.17053116.5873121-3.2828444-.4865275-1.11231324-1.5954976-1.82173666-2.8093121-1.7971556zm-24.608 7.12c-1.551309-.14450019-3.112691-.14450019-4.664 0 .5672865-.70754107 1.4251217-1.1192682 2.332-1.1192682s1.7647135.41172713 2.332 1.1192682zm10.782 6-1.414 1.468c-8.370794-5.65009251-19.5814044-4.5222611-26.659 2.682l-1.375-1.43c7.8433298-7.95735725 20.2785324-9.10721655 29.448-2.723zm-11.584 14.195c1.1589962 2.1485428 3.7014134 3.1442931 6.0112827 2.3543485 2.3098692-.7899445 3.710107-3.1340303 3.3107173-5.5423485l3.9-4.061c5.9252744 7.323159 5.5864712 17.8831228-.7960426 24.8114019-6.3825139 6.928279-16.8792954 8.1304446-24.6629504 2.8245754-7.783655-5.3058693-10.50117346-15.5158015-6.385007-23.9889773l6.24 6.487c-.1240057.7392682-.0781825 1.4970609.134 2.216.7450264 2.548402 3.3519516 4.070104 5.9373173 3.4657028 2.5853658-.6044011 4.2474978-3.1241141 3.7855345-5.7386899s-2.8869072-4.4121529-5.5228518-4.0940129l-7.034-7.318c6.2914637-6.4723226 16.2802759-7.5954986 23.852-2.682l-3.774 3.927c-1.8543147-.2225735-3.6780979.6068543-4.7290701 2.1507064s-1.1539147 3.5447365-.2669299 5.1882936zm-29.489-17.958c-.1310727-.44201062.05702949-.91634548.45540817-1.14839691s.90377212-.16167054 1.22359183.17039691c0 .1-1.3-1.348 18.689 19.442.2470194.2566922.6119449.3625891.958.278 1.5886542-.385231 3.1925308.5754452 3.6026185 2.1578652.4100876 1.5824201-.5253279 3.2011594-2.1011249 3.6360029s-3.2090011-.4750814-3.6684936-2.0438681c-.415-1.4.442-1.942-.238-2.647-19.978-20.784-18.821-19.502-18.921-19.845zm3.081 20.309c-.15919662 1.5494228-.16254673 3.1109084-.01 4.661-.7048754-.5690515-1.11374996-1.4269903-1.11180637-2.3328961.00194359-.9059057.41449571-1.7620822 1.12180637-2.3281039zm5.638 18.278c.9953765 1.1998714 2.1001286 2.3046235 3.3 3.3-.9023549.1007501-1.801548-.2144-2.443574-.856426s-.9571761-1.5412191-.856426-2.443574zm16.913 8.944c1.5477557.1489984 3.1062443.1489984 4.654 0-.5678352.7031702-1.423183 1.111864-2.327 1.111864s-1.7591648-.4086938-2.327-1.111864zm18.271-5.648c1.1998714-.9953765 2.3046235-2.1001286 3.3-3.3.1007501.9023549-.2144 1.801548-.856426 2.443574s-1.5412191.9571761-2.443574.856426zm8.944-16.913c.147594-1.5471546.147594-3.1048454 0-4.652.7024344.5678586 1.1106264 1.4227406 1.1106264 2.326s-.408192 1.7581414-1.1106264 2.326zm-1.888-2.327c-.0085594 6.7456519-2.9746933 13.1482792-8.1148879 17.5166075s-11.9373998 6.2629492-18.5961121 5.1833925c-7.4139153-1.2227082-13.7637176-5.9885033-17.0087113-12.7657572-3.24499384-6.7772539-2.97630654-14.7120255.7197113-21.2542428l1.455 1.513c-3.43133785 6.505865-3.21007614 14.3325296.5833324 20.6341493 3.7934085 6.3016197 10.6063838 10.1602469 17.9616676 10.1728507 17.814 0 27.423-20.756 16.15-34.384l1.39-1.446c3.5220638 4.138846 5.4573798 9.3953912 5.46 14.83zm4.959-28.715c-.105.36-6.5 6.924-18.921 19.844-.2477499.2575338-.3392433.6277006-.24.971.3800261 1.3037623-.1631535 2.7002127-1.3242609 3.4045178s-2.6505305.5407919-3.6311835-.3986419c-.9806529-.9394338-1.2079339-2.4204676-.5541064-3.6107305.6538274-1.1902629 2.0256808-1.7928706 3.3445508-1.4691454.3460551.0845891.7109806-.0213078.958-.278l18.688-19.441c.3195981-.33322825.8257868-.40432595 1.2248162-.17203388.3990293.23229206.5871464.707575.4551838 1.15003388z"/><path id="Shape" d="m30 49c0 .5522847.4477153 1 1 1 4.3492806.0071536 8.5345099-1.6597049 11.688-4.655.390185-.3817957.402076-1.0059608.026716-1.4023409-.37536-.3963802-.9992469-.4184828-1.401716-.0496591-2.7824417 2.6429795-6.4753864 4.1136402-10.313 4.107-.5522847 0-1 .4477153-1 1z"/><path id="Shape" d="m25 39c-.8995766.0015759-1.7909598-.170928-2.625-.508-.3336322-.1473085-.7210029-.1013033-1.0108516.1200516-.2898487.2213548-.4362048.5829518-.3819191.9435948.0542857.3606429.3006032.6631328.6427707.7893536 1.0720428.4345808 2.2182233.6570248 3.375.655.5522847 0 1-.4477153 1-1s-.4477153-1-1-1z"/><path id="Shape" d="m18 32c0-.5522847-.4477153-1-1-1s-1 .4477153-1 1c-.0020021 1.1570985.2204386 2.303602.655 3.376.2076591.511968.791032.7586591 1.303.551s.7586591-.791032.551-1.303c-.3382147-.8333854-.5110918-1.7246024-.509-2.624z"/><path id="Shape" d="m44.042 29.927c.5111313.2058764 1.0924893-.04053 1.3-.551.4355884-1.0721932.6590493-2.2187039.658-3.376 0-.5522847-.4477153-1-1-1s-1 .4477153-1 1c.0020918.8993976-.1707853 1.7906146-.509 2.624-.0998188.2458471-.0978384.5212864.0055053.7656727s.2995773.4376818.5454947.5373273z"/><path id="Shape" d="m37 35c1.5254521.0001348 3.0259755-.3869528 4.361-1.125.4832491-.2678581.657858-.8767508.3899999-1.36-.267858-.4832491-.8767507-.6578581-1.3599999-.39-1.0379368.5742732-2.2047866.8753625-3.391.875-.5522847 0-1 .4477153-1 1s.4477153 1 1 1z"/></g></symbol><symbol id="drum-1" viewBox="0 0 512 512"><title>drum-1</title><path d="M488.417,225.266c-5.514-41.862-22.061-80.206-46.68-112.135c6.896-12.203,5.667-27.768-4.716-38.151 c-10.366-10.384-25.951-11.612-38.148-4.715c-31.93-24.62-70.275-41.167-112.138-46.681C283.012,10.036,270.715,0,256,0 s-27.012,10.036-30.734,23.583c-41.863,5.514-80.208,22.061-112.138,46.681c-12.198-6.897-27.783-5.669-38.148,4.715 c-10.383,10.383-11.612,25.948-4.716,38.151c-24.618,31.93-41.165,70.273-46.68,112.135C10.036,228.988,0,241.285,0,256 c0,14.698,10.013,26.984,23.539,30.721c5.393,41.115,21.409,79.758,46.585,112.359c-6.751,12.172-5.466,27.618,4.855,37.94 c5.949,5.958,13.723,8.875,21.54,9.143c-1.698,4.199-3.284,8.081-5.02,12.388l-3.708,9.146 c-6.771,16.292,0.958,35.052,17.229,41.833c4.021,1.677,8.167,2.458,12.271,2.458c12.542,0,24.479-7.417,29.604-19.698 c0.772-1.859,3.874-11.151,8.303-24.857c22.147,10.556,45.754,17.906,70.111,21.125C229.081,502.034,241.339,512,256,512 c14.668,0,26.928-9.974,30.695-23.456c27.661-3.697,54.353-12.768,79.19-26.038c5.307,16.507,9.039,27.728,9.906,29.816 c3.292,7.885,9.458,14.021,17.354,17.271c3.938,1.615,8.063,2.406,12.188,2.406c4.167,0,8.354-0.813,12.313-2.469 c16.271-6.781,24-25.542,17.229-41.833v-0.01l-3.792-9.333c-2.008-4.98-3.848-9.487-5.805-14.323 c4.359-1.505,8.431-3.699,11.742-7.01c6.042-6.042,9.375-14.083,9.375-22.625c0-5.742-1.621-11.195-4.438-16.026 c24.958-32.539,40.986-71.008,46.419-111.624C501.945,283.035,512,270.728,512,256C512,241.285,501.964,228.988,488.417,225.266z M127.208,484.083c-2.271,5.438-8.5,8.021-13.979,5.76c-5.417-2.26-8-8.521-5.729-13.958l3.771-9.354 c33.375-82.75,59.563-145.323,78.313-187.01C168.333,357.427,130.25,476.625,127.208,484.083z M409.438,489.844 c-2.667,1.104-5.542,1.104-8.167,0.021c-2.646-1.083-4.708-3.135-5.792-5.74c-3.063-7.49-41.146-126.677-62.375-204.583 c18.708,41.656,44.875,104.146,78.208,186.792l3.854,9.552c0,0,0,0,0,0.01C417.438,481.333,414.854,487.583,409.438,489.844z M408.974,403.967c-34.139-83.383-59.194-141.159-74.432-171.488c6.917-8.875,8.771-20.781,4.313-31.469 c-5.75-13.802-25.25-37.458-44.292-29.521c-18.375,7.646-20.604,40.146-14.792,54.156c4.021,9.615,12.438,16.406,22.333,18.635 c10.563,46.625,38.867,139.599,57.22,197.638c-60.651,33.635-136.091,35.23-197.568,5.03 c18.25-57.525,47.918-154.625,58.806-202.678c9.896-2.229,18.333-9.031,22.333-18.646c5.813-14,3.563-46.49-14.792-54.135 c-19.042-7.917-38.542,15.719-44.313,29.531c-4.438,10.677-2.563,22.583,4.333,31.448c-15.715,31.288-41.796,91.52-77.561,179.108 C67.404,371.255,42.667,315.473,42.667,256c0-117.635,95.708-213.333,213.333-213.333S469.333,138.365,469.333,256 C469.333,311.279,447.376,364.28,408.974,403.967z M315.271,221.688c-0.896,0.635-1.646,1.375-2.292,2.198 c-0.667-0.135-1.375-0.208-2.104-0.208c-0.25,0-0.521,0.01-0.792,0.031c-4.604,0.271-8.875-2.115-10.604-6.26 c-3.042-7.313-0.313-23.958,2.938-26.188h0.021c3.313,0,13,9.042,16.729,17.969C321.313,214.375,318.75,219.198,315.271,221.688z M203.479,209.24c3.75-8.948,13.458-18,16.313-18.104c3.708,2.344,6.438,19,3.396,26.292c-1.729,4.156-6,6.531-10.625,6.281 c-1.063-0.125-2-0.01-2.875,0.177c-0.646-0.823-1.396-1.563-2.271-2.188C203.917,219.198,201.354,214.375,203.479,209.24z"/></symbol><symbol id="audio-waves" viewBox="0 -30 512 512"><title>audio-waves</title><path d="m0 160h40v132h-40zm79 212h40v-292h-40zm78 80h40v-452h-40zm78-160h40v-132h-40zm79 110h40v-352h-40zm158-242v142h40v-142zm-79 292h40v-452h-40zm0 0"/></symbol><symbol id="users" viewBox="0 0 512 512"><title>users</title><path d="m481.842 414.97c-.837-4.121-4.214-7.332-8.379-7.94-4.168-.608-8.4 1.576-10.316 5.325-1.899 3.715-1.268 8.355 1.596 11.401 2.823 3.003 7.313 3.967 11.12 2.394 4.343-1.796 6.917-6.562 5.979-11.18z"/><path d="m464.389 453.609c-4.679-2.94-10.852-1.526-13.786 3.151-13.854 22.066-37.666 35.24-63.695 35.24-41.428 0-75.132-33.681-75.132-75.08s33.704-75.08 75.132-75.08c25.669 0 49.304 12.895 63.215 34.484l.364.57c2.961 4.66 9.137 6.04 13.803 3.08 4.662-2.961 6.041-9.141 3.08-13.803l-.429-.672c-15.847-24.593-41.65-40.271-70.33-43.171-2.943-28.863-27.403-51.459-57.044-51.459h-7.986c24.757-18.443 40.819-47.928 40.819-81.092 0-55.738-45.371-101.085-101.141-101.085-5.14 0-10.191.386-15.127 1.128-2.562-23.172-12.993-44.607-29.883-61.083-18.997-18.531-44.084-28.737-70.636-28.737-55.77 0-101.141 45.347-101.141 101.085 0 33.164 16.062 62.648 40.818 81.092h-7.984c-31.618 0-57.341 25.71-57.341 57.313v102.453c0 5.522 4.478 10 10 10h105.647v78.692c0 5.522 4.478 10 10 10h139.158c10.569 40.991 47.871 71.365 92.138 71.365 32.954 0 63.098-16.675 80.633-44.604 2.937-4.678 1.526-10.85-3.152-13.787zm-111.988-263.831c0 44.71-36.399 81.085-81.141 81.085s-81.141-36.375-81.141-81.085 36.399-81.085 81.141-81.085 81.141 36.375 81.141 81.085zm-277.929-88.693c0-44.71 36.399-81.085 81.141-81.085 42.959 0 77.74 32.55 80.906 74.838-36.02 13.208-62.501 46.341-66.004 85.969-4.892.906-9.886 1.364-14.902 1.364-44.741 0-81.141-36.375-81.141-81.086zm71.141 227.097v3.761h-95.648v-92.453c0-20.574 16.751-37.313 37.341-37.313h83.571c3.448 28.051 18.438 52.584 40.063 68.693h-7.986c-31.618 0-57.341 25.71-57.341 57.312zm20 92.453v-92.453c0-20.573 16.751-37.312 37.341-37.312h136.613c18.625 0 34.109 13.697 36.894 31.54-47.559 5.215-84.685 45.61-84.685 94.51 0 1.244.024 2.482.072 3.715z"/><path d="m386.908 450.418c5.522 0 10-4.478 10-10v-13.498h13.498c5.522 0 10-4.477 10-10 0-5.522-4.478-10-10-10h-13.498v-13.498c0-5.522-4.478-10-10-10s-10 4.478-10 10v13.498h-13.497c-5.522 0-10 4.478-10 10 0 5.523 4.478 10 10 10h13.497v13.498c0 5.522 4.477 10 10 10z"/></symbol><symbol id="collaboration" viewBox="0 0 480 480"><title>collaboration</title><g> <g> <path d="M240,0c-26.51,0-48,21.49-48,48s21.49,48,48,48c26.499-0.026,47.974-21.501,48-48C288,21.49,266.51,0,240,0z M240,80 c-17.673,0-32-14.327-32-32s14.327-32,32-32c17.673,0,32,14.327,32,32S257.673,80,240,80z"/> </g> </g><g> <g> <path d="M272,104h-1.888l-1.688,0.84c-17.901,8.913-38.947,8.913-56.848,0l-1.688-0.84H208c-22.08,0.026-39.974,17.92-40,40v48 c0,13.255,10.745,24,24,24h96c13.255,0,24-10.745,24-24v-48C311.974,121.92,294.08,104.026,272,104z M296,192c0,4.418-3.582,8-8,8 h-96c-4.418,0-8-3.582-8-8v-48c0.002-12.592,9.735-23.042,22.296-23.936c21.375,9.92,46.034,9.92,67.408,0 c12.56,0.894,22.294,11.344,22.296,23.936V192z"/> </g> </g><g> <g> <path d="M408,264c-26.51,0-48,21.49-48,48c0,26.51,21.49,48,48,48c26.51,0,48-21.49,48-48 C455.974,285.501,434.499,264.026,408,264z M408,344c-17.673,0-32-14.327-32-32c0-17.673,14.327-32,32-32 c17.673,0,32,14.327,32,32C440,329.673,425.673,344,408,344z"/> </g> </g><g> <g> <path d="M440,368h-1.888l-1.688,0.8c-17.901,8.912-38.947,8.912-56.848,0l-1.688-0.8H376c-22.08,0.026-39.974,17.92-40,40v48 c0,13.255,10.745,24,24,24h96c13.255,0,24-10.745,24-24v-48C479.974,385.92,462.08,368.026,440,368z M464,456c0,4.418-3.582,8-8,8 h-96c-4.418,0-8-3.582-8-8v-48c0.002-12.592,9.735-23.042,22.296-23.936c21.375,9.92,46.033,9.92,67.408,0 C454.265,384.958,463.998,395.408,464,408V456z"/> </g> </g><g> <g> <path d="M72,264c-26.51,0-48,21.49-48,48c0,26.51,21.49,48,48,48s48-21.49,48-48C119.974,285.501,98.499,264.026,72,264z M72,344 c-17.673,0-32-14.327-32-32c0-17.673,14.327-32,32-32s32,14.327,32,32C104,329.673,89.673,344,72,344z"/> </g> </g><g> <g> <path d="M104,368h-1.888l-1.688,0.8c-17.901,8.912-38.947,8.912-56.848,0l-1.688-0.8H40c-22.08,0.026-39.974,17.92-40,40v48 c0,13.255,10.745,24,24,24h96c13.255,0,24-10.745,24-24v-48C143.974,385.92,126.08,368.026,104,368z M128,456c0,4.418-3.582,8-8,8 H24c-4.418,0-8-3.582-8-8v-48c0.002-12.592,9.735-23.042,22.296-23.936c21.375,9.92,46.033,9.92,67.408,0 C118.265,384.958,127.998,395.408,128,408V456z"/> </g> </g><g> <g> <path d="M319.372,406.276c-0.004-0.009-0.008-0.018-0.012-0.028c-1.732-4.065-6.431-5.956-10.495-4.224c0,0,0,0,0,0 c-36.125,15.14-76.245,17.902-114.104,7.856l7.488-2.2c4.242-1.242,6.674-5.686,5.432-9.928s-5.686-6.674-9.928-5.432l-32,9.384 c-0.12,0-0.208,0.136-0.32,0.176c-0.741,0.276-1.437,0.662-2.064,1.144c-0.278,0.15-0.545,0.318-0.8,0.504 c-0.844,0.753-1.513,1.681-1.96,2.72c-0.434,1.046-0.641,2.172-0.608,3.304c0.195,1.083,0.462,2.152,0.8,3.2 c0.048,0.112,0,0.24,0.088,0.352l16,30.616c2.046,3.919,6.881,5.438,10.8,3.392s5.438-6.881,3.392-10.8l-6.512-12.448 c43.014,12.93,89.195,10.417,130.552-7.104C319.189,415.039,321.093,410.345,319.372,406.276z"/> </g> </g><g> <g> <path d="M453.656,210.344c-3.124-3.123-8.188-3.123-11.312,0l-11.32,11.32c-6.624-70.07-51.111-130.876-115.888-158.4 c-4.065-1.732-8.764,0.159-10.496,4.224c-1.732,4.065,0.159,8.764,4.224,10.496c58.11,24.697,98.504,78.669,105.816,141.384 l-9.024-9.024c-3.178-3.07-8.242-2.982-11.312,0.196c-2.994,3.1-2.994,8.015,0,11.116l24,24c3.12,3.128,8.186,3.135,11.314,0.014 c0.005-0.005,0.01-0.01,0.014-0.014l24-24C456.791,218.528,456.784,213.464,453.656,210.344z"/> </g> </g><g> <g> <path d="M175.768,69.272c-0.026-0.467-0.095-0.93-0.208-1.384c0-0.072-0.088-0.12-0.12-0.2c-0.032-0.08,0-0.136,0-0.2 c-0.218-0.389-0.47-0.759-0.752-1.104c-0.259-0.469-0.565-0.911-0.912-1.32c-0.473-0.419-0.997-0.776-1.56-1.064 c-0.281-0.239-0.581-0.456-0.896-0.648l-32-14.616c-4.087-1.678-8.761,0.275-10.439,4.362c-1.587,3.865,0.068,8.301,3.799,10.182 l16.568,7.576C86.875,104.237,47.955,169.256,48,240c0,4.418,3.582,8,8,8s8-3.582,8-8c-0.04-62.293,32.901-119.952,86.584-151.552 l-5.784,12.088c-1.907,3.977-0.236,8.747,3.736,10.664c1.079,0.527,2.263,0.801,3.464,0.8c3.072-0.004,5.87-1.767,7.2-4.536 l16-33.384c0-0.08,0-0.168,0.064-0.248c0.208-0.547,0.353-1.116,0.432-1.696c0.137-0.431,0.239-0.872,0.304-1.32 C175.973,70.295,175.896,69.778,175.768,69.272z"/> </g> </g></symbol><symbol id="synthesizer" viewBox="0 0 512 512"><title>synthesizer</title><path d="m476 104h-440a28.031 28.031 0 0 0 -28 28v248a28.031 28.031 0 0 0 28 28h440a28.031 28.031 0 0 0 28-28v-248a28.031 28.031 0 0 0 -28-28zm-316 16h192v128h-192zm-136 12a12.01 12.01 0 0 1 12-12h108v128h-120zm40 260h-28a12.01 12.01 0 0 1 -12-12v-116h24v56a8 8 0 0 0 8 8h8zm0-128h16v48h-16zm56 128h-40v-64h8a8 8 0 0 0 8-8v-56h8v56a8 8 0 0 0 8 8h8zm0-128h16v48h-16zm48 128h-32v-64h8a8 8 0 0 0 8-8v-56h16zm48 0h-32v-128h16v56a8 8 0 0 0 8 8h8zm0-128h16v48h-16zm56 128h-40v-64h8a8 8 0 0 0 8-8v-56h8v56a8 8 0 0 0 8 8h8zm0-128h16v48h-16zm56 128h-40v-64h8a8 8 0 0 0 8-8v-56h8v56a8 8 0 0 0 8 8h8zm0-128h16v48h-16zm48 128h-32v-64h8a8 8 0 0 0 8-8v-56h16zm48 0h-32v-128h16v56a8 8 0 0 0 8 8h8zm64-12a12.01 12.01 0 0 1 -12 12h-36v-64h8a8 8 0 0 0 8-8v-56h32zm-64-68v-48h16v48zm64-64h-120v-128h108a12.01 12.01 0 0 1 12 12z"/><path d="m440 184h8v48a8 8 0 0 0 16 0v-48h8a8 8 0 0 0 8-8v-24a8 8 0 0 0 -8-8h-8v-8a8 8 0 0 0 -16 0v8h-8a8 8 0 0 0 -8 8v24a8 8 0 0 0 8 8zm8-24h16v8h-16z"/><path d="m384 216h8v16a8 8 0 0 0 16 0v-16h8a8 8 0 0 0 8-8v-24a8 8 0 0 0 -8-8h-8v-40a8 8 0 0 0 -16 0v40h-8a8 8 0 0 0 -8 8v24a8 8 0 0 0 8 8zm8-24h16v8h-16z"/><path d="m40 144h88a8 8 0 0 0 0-16h-88a8 8 0 0 0 0 16z"/><path d="m40 168h24a8 8 0 0 0 0-16h-24a8 8 0 0 0 0 16z"/><path d="m336 128h-160a8 8 0 0 0 -8 8v96a8 8 0 0 0 8 8h160a8 8 0 0 0 8-8v-96a8 8 0 0 0 -8-8zm-8 96h-144v-80h144z"/><path d="m80 232v-32a8 8 0 0 0 -8-8h-32a8 8 0 0 0 -8 8v32a8 8 0 0 0 8 8h32a8 8 0 0 0 8-8zm-16-8h-16v-16h16z"/><path d="m128 192h-32a8 8 0 0 0 -8 8v32a8 8 0 0 0 8 8h32a8 8 0 0 0 8-8v-32a8 8 0 0 0 -8-8zm-8 32h-16v-16h16z"/></symbol><symbol id="game-controller" viewBox="0 0 512 512"><title>game-controller</title><g> <g> <path d="M480,266.7H32c-17.673,0-32,14.327-32,32v106.667c0,17.673,14.327,32,32,32v32c0,5.891,4.776,10.667,10.667,10.667 h426.667c5.891,0,10.667-4.776,10.667-10.667v-32c17.673,0,32-14.327,32-32V298.7C512,281.026,497.673,266.7,480,266.7z M490.667,405.366c0,5.891-4.776,10.667-10.667,10.667h-10.667c-5.891,0-10.667,4.776-10.667,10.667v32H53.333v-32 c0-5.891-4.776-10.667-10.667-10.667H32c-5.891,0-10.667-4.776-10.667-10.667V298.7c0-5.891,4.776-10.667,10.667-10.667h448 c5.891,0,10.667,4.776,10.667,10.667V405.366z"/> </g> </g><g> <g> <rect x="42.667" y="416.033" width="394.667" height="21.333"/> </g> </g><g> <g> <path d="M202.667,309.366H53.333c-5.891,0-10.667,4.776-10.667,10.667V394.7H64v-64h128v64h21.333v-74.667 C213.333,314.142,208.558,309.366,202.667,309.366z"/> </g> </g><g> <g> <path d="M266.667,320.033c-17.673,0-32,14.327-32,32s14.327,32,32,32c17.673,0,32-14.327,32-32S284.34,320.033,266.667,320.033z M266.667,362.7c-5.891,0-10.667-4.776-10.667-10.667c0-5.891,4.776-10.667,10.667-10.667c5.891,0,10.667,4.776,10.667,10.667 C277.333,357.924,272.558,362.7,266.667,362.7z"/> </g> </g><g> <g> <path d="M352,320.033c-17.673,0-32,14.327-32,32s14.327,32,32,32s32-14.327,32-32S369.673,320.033,352,320.033z M352,362.7 c-5.891,0-10.667-4.776-10.667-10.667c0-5.891,4.776-10.667,10.667-10.667c5.891,0,10.667,4.776,10.667,10.667 C362.667,357.924,357.891,362.7,352,362.7z"/> </g> </g><g> <g> <path d="M437.333,320.033c-17.673,0-32,14.327-32,32s14.327,32,32,32s32-14.327,32-32S455.006,320.033,437.333,320.033z M437.333,362.7c-5.891,0-10.667-4.776-10.667-10.667c0-5.891,4.776-10.667,10.667-10.667c5.891,0,10.667,4.776,10.667,10.667 C448,357.924,443.224,362.7,437.333,362.7z"/> </g> </g><g> <g> <path d="M160,40.552c-30.611-17.673-69.753-7.185-87.426,23.426C54.901,94.589,65.389,133.73,96,151.403v72.629h21.333v-79.168 c-0.002-4.239-2.515-8.075-6.4-9.771c-9.862-4.304-17.734-12.176-22.038-22.038c-9.426-21.597,0.441-46.746,22.038-56.171 s46.746,0.441,56.171,22.038s-0.441,46.746-22.038,56.171c-3.885,1.696-6.398,5.531-6.4,9.771v79.168H160v-72.629 c9.729-5.617,17.808-13.696,23.426-23.426C201.099,97.367,190.611,58.225,160,40.552z"/> </g> </g><g> <g> <path d="M202.123,273.995l-10.667-32c-1.451-4.358-5.53-7.297-10.123-7.296H74.667c-4.593-0.001-8.671,2.938-10.123,7.296 l-10.667,32c-0.362,1.088-0.547,2.227-0.547,3.373c0.001,5.891,4.778,10.666,10.669,10.664h128c1.146,0,2.286-0.184,3.373-0.547 C200.962,285.625,203.984,279.585,202.123,273.995z M78.795,266.7l3.563-10.667h91.285l3.563,10.667H78.795z"/> </g> </g><g> <g> <path d="M320,234.7h-64c-11.782,0-21.333,9.551-21.333,21.333v21.333H256v-21.333h64v21.333h21.333v-21.333 C341.333,244.251,331.782,234.7,320,234.7z"/> </g> </g><g> <g> <path d="M448,234.7h-64c-11.782,0-21.333,9.551-21.333,21.333v21.333H384v-21.333h64v21.333h21.333v-21.333 C469.333,244.251,459.782,234.7,448,234.7z"/> </g> </g><g> <g> <rect x="96" y="352.033" width="21.333" height="21.333"/> </g> </g><g> <g> <rect x="138.667" y="352.033" width="21.333" height="21.333"/> </g> </g></symbol><symbol id="mixer" viewBox="0 0 128 128"><title>mixer</title><path d="m121.693 4.557h-115.386a1.749 1.749 0 0 0 -1.75 1.75v115.386a1.749 1.749 0 0 0 1.75 1.75h115.386a1.749 1.749 0 0 0 1.75-1.75v-115.386a1.749 1.749 0 0 0 -1.75-1.75zm-1.75 115.386h-111.886v-111.886h111.886z"/><path d="m44.021 39.343h2.047v49.77a5.071 5.071 0 1 0 10.141 0v-49.77h2.047a1.749 1.749 0 0 0 1.75-1.75v-6.247a1.749 1.749 0 0 0 -1.75-1.75h-2.047v-10.178a5.071 5.071 0 0 0 -10.141 0v10.182h-2.047a1.75 1.75 0 0 0 -1.75 1.75v6.247a1.75 1.75 0 0 0 1.75 1.746zm8.688 49.77a1.571 1.571 0 1 1 -3.141 0v-49.77h3.141zm-3.141-69.695a1.571 1.571 0 0 1 3.141 0v10.182h-3.141zm-3.797 13.682h10.735v2.747h-10.735z"/><path d="m51.139 98.447a7.6 7.6 0 1 0 7.6 7.6 7.611 7.611 0 0 0 -7.6-7.6zm0 11.7a4.1 4.1 0 1 1 4.1-4.1 4.108 4.108 0 0 1 -4.1 4.105z"/><path d="m18.3 80.884h2.047v8.229a5.071 5.071 0 1 0 10.141 0v-8.229h2.047a1.749 1.749 0 0 0 1.75-1.75v-6.247a1.749 1.749 0 0 0 -1.75-1.75h-2.048v-51.719a5.071 5.071 0 0 0 -10.141 0v51.719h-2.046a1.749 1.749 0 0 0 -1.75 1.75v6.247a1.749 1.749 0 0 0 1.75 1.75zm8.688 8.229a1.571 1.571 0 1 1 -3.141 0v-8.229h3.141zm-3.142-69.695a1.571 1.571 0 0 1 3.141 0v51.719h-3.141zm-3.8 55.219h10.738v2.747h-10.735z"/><path d="m25.417 98.447a7.6 7.6 0 1 0 7.6 7.6 7.612 7.612 0 0 0 -7.6-7.6zm0 11.7a4.1 4.1 0 1 1 4.1-4.1 4.108 4.108 0 0 1 -4.1 4.105z"/><path d="m76.861 98.447a7.6 7.6 0 1 0 7.6 7.6 7.611 7.611 0 0 0 -7.6-7.6zm0 11.7a4.1 4.1 0 1 1 4.1-4.1 4.108 4.108 0 0 1 -4.1 4.105z"/><path d="m69.744 78.884h2.047v10.229a5.071 5.071 0 1 0 10.141 0v-10.229h2.046a1.749 1.749 0 0 0 1.75-1.75v-6.247a1.749 1.749 0 0 0 -1.75-1.75h-2.046v-49.719a5.071 5.071 0 0 0 -10.141 0v49.719h-2.047a1.749 1.749 0 0 0 -1.75 1.75v6.247a1.749 1.749 0 0 0 1.75 1.75zm8.688 10.229a1.571 1.571 0 1 1 -3.141 0v-10.229h3.141zm-3.141-69.695a1.571 1.571 0 0 1 3.141 0v49.719h-3.141zm-3.8 53.219h10.737v2.747h-10.734z"/><path d="m102.583 98.447a7.6 7.6 0 1 0 7.6 7.6 7.611 7.611 0 0 0 -7.6-7.6zm0 11.7a4.1 4.1 0 1 1 4.1-4.1 4.108 4.108 0 0 1 -4.1 4.105z"/><path d="m95.466 37.4h2.047v51.713a5.071 5.071 0 1 0 10.141 0v-51.713h2.046a1.75 1.75 0 0 0 1.75-1.75v-6.25a1.75 1.75 0 0 0 -1.75-1.75h-2.047v-8.232a5.071 5.071 0 0 0 -10.141 0v8.229h-2.046a1.75 1.75 0 0 0 -1.75 1.75v6.248a1.75 1.75 0 0 0 1.75 1.755zm8.688 51.718a1.571 1.571 0 1 1 -3.141 0v-51.718h3.141zm-3.141-69.695a1.571 1.571 0 0 1 3.141 0v8.229h-3.141zm-3.8 11.729h10.735v2.748h-10.732z"/></symbol></svg>